<mxfile host="app.diagrams.net" modified="2023-05-12T12:18:28.996Z" agent="Mozilla/5.0 (Windows NT 10.0; Win64; x64) AppleWebKit/537.36 (KHTML, like Gecko) Chrome/113.0.0.0 Safari/537.36" etag="guc-utSr-lRbI97ruTv2" version="21.2.9" type="github">
  <diagram name="Page-1" id="h-LSnoR79d28a6ib0NwK">
    <mxGraphModel dx="2284" dy="760" grid="1" gridSize="10" guides="1" tooltips="1" connect="1" arrows="1" fold="1" page="1" pageScale="1" pageWidth="850" pageHeight="1100" math="0" shadow="0">
      <root>
        <mxCell id="0" />
        <mxCell id="1" parent="0" />
        <mxCell id="FpJJN7stxPnx7Uketv6n-2" value="Care Home Booking" style="rounded=0;whiteSpace=wrap;html=1;" vertex="1" parent="1">
          <mxGeometry x="220" y="110" width="120" height="60" as="geometry" />
        </mxCell>
        <mxCell id="FpJJN7stxPnx7Uketv6n-3" value="Nourish" style="rounded=0;whiteSpace=wrap;html=1;" vertex="1" parent="1">
          <mxGeometry x="30" y="480" width="120" height="60" as="geometry" />
        </mxCell>
        <mxCell id="FpJJN7stxPnx7Uketv6n-4" value="Person Centered Software" style="rounded=0;whiteSpace=wrap;html=1;" vertex="1" parent="1">
          <mxGeometry x="200" y="480" width="120" height="60" as="geometry" />
        </mxCell>
        <mxCell id="FpJJN7stxPnx7Uketv6n-5" value="Care Beans" style="rounded=0;whiteSpace=wrap;html=1;" vertex="1" parent="1">
          <mxGeometry x="365" y="480" width="120" height="60" as="geometry" />
        </mxCell>
        <mxCell id="FpJJN7stxPnx7Uketv6n-7" value="" style="ellipse;whiteSpace=wrap;html=1;opacity=70;" vertex="1" parent="1">
          <mxGeometry x="-80" y="395" width="730" height="230" as="geometry" />
        </mxCell>
        <mxCell id="FpJJN7stxPnx7Uketv6n-9" value="Systems Which Have Empty Room Data" style="text;html=1;strokeColor=none;fillColor=none;align=center;verticalAlign=middle;whiteSpace=wrap;rounded=0;" vertex="1" parent="1">
          <mxGeometry x="220" y="440" width="130" height="30" as="geometry" />
        </mxCell>
        <mxCell id="FpJJN7stxPnx7Uketv6n-10" value="" style="endArrow=classic;startArrow=classic;html=1;rounded=0;exitX=0.492;exitY=-0.004;exitDx=0;exitDy=0;exitPerimeter=0;" edge="1" parent="1" source="FpJJN7stxPnx7Uketv6n-7">
          <mxGeometry width="50" height="50" relative="1" as="geometry">
            <mxPoint x="230" y="220" as="sourcePoint" />
            <mxPoint x="280" y="170" as="targetPoint" />
          </mxGeometry>
        </mxCell>
        <mxCell id="FpJJN7stxPnx7Uketv6n-12" value="" style="edgeStyle=orthogonalEdgeStyle;rounded=0;orthogonalLoop=1;jettySize=auto;html=1;" edge="1" parent="1" source="FpJJN7stxPnx7Uketv6n-11" target="FpJJN7stxPnx7Uketv6n-2">
          <mxGeometry relative="1" as="geometry" />
        </mxCell>
        <mxCell id="FpJJN7stxPnx7Uketv6n-11" value="Care Sourcer" style="ellipse;whiteSpace=wrap;html=1;" vertex="1" parent="1">
          <mxGeometry x="-50" y="100" width="120" height="80" as="geometry" />
        </mxCell>
        <mxCell id="FpJJN7stxPnx7Uketv6n-14" value="" style="edgeStyle=orthogonalEdgeStyle;rounded=0;orthogonalLoop=1;jettySize=auto;html=1;" edge="1" parent="1" source="FpJJN7stxPnx7Uketv6n-13" target="FpJJN7stxPnx7Uketv6n-11">
          <mxGeometry relative="1" as="geometry" />
        </mxCell>
        <mxCell id="FpJJN7stxPnx7Uketv6n-13" value="Actor" style="shape=umlActor;verticalLabelPosition=bottom;verticalAlign=top;html=1;outlineConnect=0;" vertex="1" parent="1">
          <mxGeometry x="-120" y="110" width="30" height="60" as="geometry" />
        </mxCell>
        <mxCell id="FpJJN7stxPnx7Uketv6n-20" value="" style="edgeStyle=orthogonalEdgeStyle;rounded=0;orthogonalLoop=1;jettySize=auto;html=1;" edge="1" parent="1" source="FpJJN7stxPnx7Uketv6n-19" target="FpJJN7stxPnx7Uketv6n-2">
          <mxGeometry relative="1" as="geometry" />
        </mxCell>
        <mxCell id="FpJJN7stxPnx7Uketv6n-19" value="Care Home UK" style="ellipse;whiteSpace=wrap;html=1;" vertex="1" parent="1">
          <mxGeometry x="30" y="10" width="120" height="80" as="geometry" />
        </mxCell>
        <mxCell id="FpJJN7stxPnx7Uketv6n-22" style="edgeStyle=orthogonalEdgeStyle;rounded=0;orthogonalLoop=1;jettySize=auto;html=1;exitX=0.5;exitY=0.5;exitDx=0;exitDy=0;exitPerimeter=0;" edge="1" parent="1" source="FpJJN7stxPnx7Uketv6n-21" target="FpJJN7stxPnx7Uketv6n-19">
          <mxGeometry relative="1" as="geometry" />
        </mxCell>
        <mxCell id="FpJJN7stxPnx7Uketv6n-21" value="Actor" style="shape=umlActor;verticalLabelPosition=bottom;verticalAlign=top;html=1;outlineConnect=0;" vertex="1" parent="1">
          <mxGeometry x="-100" y="20" width="30" height="60" as="geometry" />
        </mxCell>
        <mxCell id="FpJJN7stxPnx7Uketv6n-23" value="Can we use their care home contacts?" style="text;html=1;strokeColor=none;fillColor=none;align=center;verticalAlign=middle;whiteSpace=wrap;rounded=0;" vertex="1" parent="1">
          <mxGeometry x="-30" y="190" width="110" height="30" as="geometry" />
        </mxCell>
        <mxCell id="FpJJN7stxPnx7Uketv6n-25" value="" style="edgeStyle=orthogonalEdgeStyle;rounded=0;orthogonalLoop=1;jettySize=auto;html=1;" edge="1" parent="1" source="FpJJN7stxPnx7Uketv6n-24" target="FpJJN7stxPnx7Uketv6n-2">
          <mxGeometry relative="1" as="geometry" />
        </mxCell>
        <mxCell id="FpJJN7stxPnx7Uketv6n-24" value="B2C Login" style="rounded=1;whiteSpace=wrap;html=1;" vertex="1" parent="1">
          <mxGeometry x="400" y="110" width="120" height="60" as="geometry" />
        </mxCell>
        <mxCell id="FpJJN7stxPnx7Uketv6n-27" value="" style="edgeStyle=orthogonalEdgeStyle;rounded=0;orthogonalLoop=1;jettySize=auto;html=1;" edge="1" parent="1" source="FpJJN7stxPnx7Uketv6n-26" target="FpJJN7stxPnx7Uketv6n-24">
          <mxGeometry relative="1" as="geometry" />
        </mxCell>
        <mxCell id="FpJJN7stxPnx7Uketv6n-26" value="Actor" style="shape=umlActor;verticalLabelPosition=bottom;verticalAlign=top;html=1;outlineConnect=0;" vertex="1" parent="1">
          <mxGeometry x="590" y="110" width="30" height="60" as="geometry" />
        </mxCell>
        <mxCell id="FpJJN7stxPnx7Uketv6n-28" value="&amp;nbsp;B2B Login" style="rounded=1;whiteSpace=wrap;html=1;" vertex="1" parent="1">
          <mxGeometry x="400" y="220" width="120" height="60" as="geometry" />
        </mxCell>
        <mxCell id="FpJJN7stxPnx7Uketv6n-30" value="" style="edgeStyle=orthogonalEdgeStyle;rounded=0;orthogonalLoop=1;jettySize=auto;html=1;" edge="1" parent="1" source="FpJJN7stxPnx7Uketv6n-29" target="FpJJN7stxPnx7Uketv6n-28">
          <mxGeometry relative="1" as="geometry" />
        </mxCell>
        <mxCell id="FpJJN7stxPnx7Uketv6n-29" value="Actor" style="shape=umlActor;verticalLabelPosition=bottom;verticalAlign=top;html=1;outlineConnect=0;" vertex="1" parent="1">
          <mxGeometry x="600" y="220" width="30" height="60" as="geometry" />
        </mxCell>
        <mxCell id="FpJJN7stxPnx7Uketv6n-32" value="" style="endArrow=classic;html=1;rounded=0;exitX=0;exitY=0.5;exitDx=0;exitDy=0;entryX=0.75;entryY=1;entryDx=0;entryDy=0;" edge="1" parent="1" source="FpJJN7stxPnx7Uketv6n-28" target="FpJJN7stxPnx7Uketv6n-2">
          <mxGeometry width="50" height="50" relative="1" as="geometry">
            <mxPoint x="330" y="260" as="sourcePoint" />
            <mxPoint x="380" y="210" as="targetPoint" />
          </mxGeometry>
        </mxCell>
        <mxCell id="FpJJN7stxPnx7Uketv6n-33" value="Care home users" style="text;html=1;strokeColor=none;fillColor=none;align=center;verticalAlign=middle;whiteSpace=wrap;rounded=0;" vertex="1" parent="1">
          <mxGeometry x="640" y="250" width="80" height="30" as="geometry" />
        </mxCell>
      </root>
    </mxGraphModel>
  </diagram>
</mxfile>
